<svg width="62" height="60" viewBox="0 0 62 60" fill="none" xmlns="http://www.w3.org/2000/svg">
<path d="M58.2645 0.626465H3.73549C1.66275 0.626465 0 2.21332 0 4.19146V56.2317C0 58.2098 1.66275 59.7967 3.73549 59.7967H58.2645C60.3373 59.7967 62 58.2098 62 56.2317V4.19146C62 2.21332 60.3145 0.626465 58.2645 0.626465ZM14.1903 41.7108H11.3659C11.0698 41.7108 10.8193 41.4717 10.8193 41.1891V16.495C10.8193 16.2124 11.0698 15.9733 11.3659 15.9733H22.5268C24.4401 15.9733 26.1712 16.1038 27.7428 16.3646C28.8589 16.5385 29.9067 16.7776 30.8633 17.0385C31.3417 17.1689 31.7972 17.3211 32.2528 17.495C33.6877 18.0167 34.9177 18.7123 35.9655 19.4731C37.241 20.3861 38.2432 21.4078 38.9949 22.3642C39.5643 23.1033 40.0198 23.8424 40.3843 24.5597C40.817 25.4293 41.1132 26.2553 41.2954 27.0161C41.3865 27.3639 41.4548 27.69 41.5004 27.9943C41.5459 28.2986 41.5915 28.5812 41.637 28.8421C41.6826 29.3638 41.7054 29.7768 41.7054 30.0159V30.2985V30.3203L41.6826 30.6898V30.7115C41.6826 30.9941 41.432 31.2332 41.1359 31.2332H38.3115C37.9927 31.2332 37.7421 30.9724 37.7649 30.6898V30.5811L37.7877 30.2768V30.0159C37.7877 29.7768 37.7649 29.3638 37.6965 28.8638C37.651 28.516 37.5827 28.103 37.4688 27.69C37.3093 27.1031 37.0816 26.4509 36.7627 25.7988C36.4893 25.2336 36.1477 24.6684 35.7149 24.125C35.1683 23.4294 34.4622 22.7338 33.5511 22.1251C32.7994 21.6034 31.8883 21.1252 30.8406 20.7122L30.6583 20.647C29.6106 20.2557 28.3806 19.9513 26.9912 19.734C25.6929 19.5383 24.2351 19.4296 22.5724 19.4296H15.2608C14.9647 19.4296 14.7142 19.6687 14.7142 19.9513V41.2109C14.737 41.4935 14.4864 41.7108 14.1903 41.7108ZM51.0896 32.1897C51.0213 32.8853 50.9074 33.7548 50.7024 34.7113C50.4974 35.6677 50.1785 36.7329 49.7458 37.8198C49.313 38.9067 48.7436 40.037 48.0147 41.1674C47.1947 42.4065 46.1697 43.6672 44.8714 44.8193C43.5731 45.9714 42.0242 47.0366 40.1337 47.8626C38.5621 48.5582 36.7627 49.1234 34.7355 49.493C33.5283 49.7103 32.23 49.8842 30.8406 49.9712C30.0661 50.0147 29.2689 50.0364 28.4489 50.0364H20.5452C20.2491 50.0364 19.9985 49.7973 19.9985 49.5147V28.1682C19.9985 27.8856 20.2491 27.6465 20.5452 27.6465H23.3696C23.6657 27.6465 23.9162 27.8856 23.9162 28.1682V45.9714C23.9162 46.254 24.1668 46.4932 24.4629 46.4932H28.4489C29.2917 46.4932 30.0889 46.4714 30.8406 46.4062C31.9111 46.341 32.8905 46.2106 33.8244 46.0367C35.5327 45.7323 37.036 45.2758 38.3115 44.7107C39.701 44.102 40.8854 43.3629 41.8876 42.5369C43.0037 41.6022 43.892 40.5805 44.5981 39.5153C45.1447 38.6676 45.6003 37.8198 45.942 36.972C46.3519 35.9721 46.6481 34.9721 46.8303 34.1026C47.0125 33.2766 47.1036 32.5375 47.1719 31.9506C47.2175 31.3637 47.2403 30.8854 47.2403 30.5811C47.2403 23.0816 44.8031 17.5819 37.5143 14.3647C37.3321 14.2778 37.1954 14.1039 37.1954 13.9082V11.1475C37.1954 10.778 37.5827 10.5389 37.9243 10.6693C47.6047 14.343 51.1352 21.06 51.1352 30.5811C51.158 30.9072 51.158 31.4724 51.0896 32.1897Z" fill="#007679"/>
</svg>
