<svg width="62" height="62" viewBox="0 0 62 62" fill="none" xmlns="http://www.w3.org/2000/svg">
<path d="M58.2645 0H3.73549C1.66275 0 0 1.66275 0 3.73549V58.2645C0 60.3372 1.66275 62 3.73549 62H58.2645C60.3373 62 62 60.3372 62 58.2645V3.73549C62 1.66275 60.3145 0 58.2645 0ZM14.1903 43.0492H11.3659C11.0698 43.0492 10.8193 42.7987 10.8193 42.5026V16.6275C10.8193 16.3314 11.0698 16.0808 11.3659 16.0808H22.5268C24.4401 16.0808 26.1712 16.2175 27.7428 16.4908C28.8589 16.673 29.9067 16.9236 30.8633 17.1969C31.3417 17.3336 31.7972 17.493 32.2528 17.6752C33.6877 18.2219 34.9177 18.9508 35.9655 19.748C37.241 20.7046 38.2432 21.7752 38.9949 22.7774C39.5643 23.5518 40.0198 24.3262 40.3843 25.0779C40.817 25.989 41.1132 26.8545 41.2954 27.6517C41.3865 28.0162 41.4548 28.3578 41.5004 28.6767C41.5459 28.9956 41.5915 29.2917 41.637 29.565C41.6826 30.1117 41.7054 30.5444 41.7054 30.795V31.0911V31.1139L41.6826 31.5011V31.5239C41.6826 31.82 41.432 32.0705 41.1359 32.0705H38.3115C37.9927 32.0705 37.7421 31.7972 37.7649 31.5011V31.3872L37.7877 31.0683V30.795C37.7877 30.5444 37.7649 30.1117 37.6965 29.5878C37.651 29.2234 37.5827 28.7906 37.4688 28.3578C37.3093 27.7428 37.0816 27.0595 36.7627 26.3762C36.4893 25.784 36.1477 25.1918 35.7149 24.6223C35.1683 23.8935 34.4622 23.1646 33.5511 22.5268C32.7994 21.9802 31.8883 21.4791 30.8406 21.0463L30.6583 20.978C29.6106 20.568 28.3806 20.2491 26.9912 20.0213C25.6929 19.8163 24.2351 19.7024 22.5724 19.7024H15.2608C14.9647 19.7024 14.7142 19.953 14.7142 20.2491V42.5253C14.737 42.8215 14.4864 43.0492 14.1903 43.0492ZM51.0896 33.0727C51.0213 33.8016 50.9074 34.7127 50.7024 35.7149C50.4974 36.7171 50.1785 37.8332 49.7458 38.9721C49.313 40.1109 48.7436 41.2954 48.0147 42.4798C47.1947 43.7781 46.1697 45.0992 44.8714 46.3064C43.5731 47.5136 42.0242 48.6297 40.1337 49.4952C38.5621 50.2241 36.7627 50.8163 34.7355 51.2035C33.5283 51.4313 32.23 51.6135 30.8406 51.7046C30.0661 51.7502 29.2689 51.773 28.4489 51.773H20.5452C20.2491 51.773 19.9985 51.5224 19.9985 51.2263V28.8589C19.9985 28.5628 20.2491 28.3123 20.5452 28.3123H23.3696C23.6657 28.3123 23.9162 28.5628 23.9162 28.8589V47.5136C23.9162 47.8097 24.1668 48.0602 24.4629 48.0602H28.4489C29.2917 48.0602 30.0889 48.0375 30.8406 47.9691C31.9111 47.9008 32.8905 47.7641 33.8244 47.5819C35.5327 47.263 37.036 46.7847 38.3115 46.1925C39.701 45.5547 40.8854 44.7803 41.8876 43.9148C43.0037 42.9353 43.892 41.8648 44.5981 40.7487C45.1447 39.8604 45.6003 38.9721 45.942 38.0838C46.3519 37.036 46.6481 35.9882 46.8303 35.0771C47.0125 34.2116 47.1036 33.4372 47.1719 32.8222C47.2175 32.2072 47.2403 31.7061 47.2403 31.3872C47.2403 23.529 44.8031 17.7663 37.5143 14.3953C37.3321 14.3042 37.1954 14.122 37.1954 13.917V11.0242C37.1954 10.637 37.5827 10.3865 37.9243 10.5231C47.6047 14.3725 51.1352 21.4107 51.1352 31.3872C51.158 31.7289 51.158 32.3211 51.0896 33.0727Z" fill="white"/>
</svg>
